<svg width="18" height="18" viewBox="0 0 18 18" fill="none" xmlns="http://www.w3.org/2000/svg">
<path d="M17.0682 1.76033L10.1932 16.7603C10.1357 16.886 10.0382 16.989 9.91586 17.0533C9.79354 17.1177 9.65336 17.1396 9.51724 17.1158C9.38112 17.092 9.25673 17.0237 9.16352 16.9217C9.07032 16.8197 9.01356 16.6896 9.00212 16.5519L8.42087 9.57896L1.44793 8.99771C1.31021 8.98627 1.18017 8.92951 1.07814 8.8363C0.976111 8.7431 0.907848 8.61871 0.884028 8.48258C0.860207 8.34646 0.882173 8.20628 0.946489 8.08397C1.0108 7.96166 1.11384 7.86411 1.23949 7.80658L16.2395 0.93158C16.3555 0.878438 16.4849 0.862048 16.6104 0.884614C16.736 0.907179 16.8516 0.967618 16.9418 1.05781C17.032 1.14801 17.0925 1.26365 17.115 1.38919C17.1376 1.51474 17.1212 1.64418 17.0681 1.76014L17.0682 1.76033Z" fill="#080809"/>
</svg>
